# xmcd
#
# Track frame offsets:
#	150
#	21644
#	56356
#	93621
#	99735
#	136013
#
# Disc length: 2267 seconds
#
# Revision: 1
# Processed by: cddbd v1.5.2PL0 Copyright (c) Steve Scherf et al.
# Submitted via: audiograbber 1.83.01
#
DISCID=4c08d906
DTITLE=Grateful Dead - 82-09-24 Carrier Dome, Syracuse University, Syracuse NY
DYEAR=1900
DGENRE=
TTITLE0=Far From Me
TTITLE1=Playing In The Band
TTITLE2=Crazy Fingers
TTITLE3=Playing In The Band
TTITLE4=Throwing Stones
TTITLE5=Drums
EXTD=
EXTT0=
EXTT1=
EXTT2=
EXTT3=
EXTT4=
EXTT5=
PLAYORDER=
